<?xml version="1.0" standalone="no"?>
<!DOCTYPE svg PUBLIC "-//W3C//DTD SVG 20010904//EN"
 "http://www.w3.org/TR/2001/REC-SVG-20010904/DTD/svg10.dtd">
<svg version="1.0" xmlns="http://www.w3.org/2000/svg"
 width="680.000000pt" height="628.000000pt" viewBox="0 0 680.000000 628.000000"
 preserveAspectRatio="xMidYMid meet">

<g transform="translate(0.000000,628.000000) scale(0.100000,-0.100000)"
fill="#FF385C" stroke="none">
<path d="M3290 4709 c-30 -5 -59 -15 -65 -23 -5 -7 -15 -11 -22 -9 -6 2 -21
-6 -32 -18 -11 -12 -31 -23 -43 -25 -13 -1 -27 -3 -31 -3 -5 -1 -6 -5 -3 -10
3 -4 -6 -13 -19 -19 -14 -7 -25 -16 -25 -22 0 -6 -4 -9 -9 -6 -16 10 -97 -105
-83 -119 4 -3 1 -5 -7 -3 -8 2 -28 -20 -47 -52 -38 -62 -39 -67 -21 -73 6 -2
3 -3 -9 -1 -17 3 -24 -5 -35 -39 -7 -23 -26 -60 -40 -82 -31 -45 -48 -92 -30
-81 21 13 11 -5 -16 -30 -22 -20 -23 -23 -6 -15 18 9 20 8 16 -7 -2 -11 -13
-18 -25 -18 -14 1 -24 -10 -36 -39 -9 -22 -19 -41 -24 -43 -4 -2 -8 -15 -8
-28 0 -14 -4 -23 -8 -20 -4 2 -31 -44 -60 -102 -29 -59 -57 -114 -62 -122 -11
-18 -60 -128 -60 -136 0 -3 4 -2 10 1 6 4 6 -3 0 -21 -7 -19 -7 -30 1 -40 6
-8 7 -14 2 -14 -6 0 -15 10 -20 23 -11 21 -11 21 -19 2 -4 -11 -16 -32 -26
-47 -17 -24 -17 -28 -4 -28 9 0 16 -5 16 -11 0 -6 -9 -9 -20 -6 -11 3 -20 0
-20 -5 0 -6 -13 -36 -29 -67 -22 -43 -26 -62 -19 -75 5 -10 7 -20 4 -23 -3 -4
-6 -1 -6 5 0 7 -4 12 -9 12 -9 0 -91 -162 -91 -180 0 -5 -4 -10 -10 -10 -5 0
-10 -7 -10 -15 0 -8 -4 -23 -10 -33 -31 -56 -70 -147 -67 -155 2 -6 -5 -19
-15 -29 -11 -11 -18 -27 -16 -36 2 -9 -7 -25 -19 -35 -13 -10 -23 -25 -23 -33
0 -8 -13 -41 -28 -72 -16 -31 -30 -61 -31 -67 -6 -20 -22 -58 -28 -68 -3 -6
-1 -7 5 -3 20 12 13 -5 -8 -22 -31 -25 -73 -148 -60 -173 7 -11 7 -19 1 -19
-5 0 -12 5 -14 10 -3 6 -4 5 -3 -2 2 -7 -3 -33 -10 -58 -17 -54 -19 -196 -3
-206 6 -3 9 -15 6 -25 -12 -45 70 -245 119 -292 13 -12 24 -26 24 -30 0 -12
43 -46 58 -47 7 0 11 -4 8 -9 -3 -5 3 -11 14 -14 10 -3 21 -1 24 4 2 5 3 4 1
-3 -1 -7 -8 -12 -14 -10 -7 1 -9 -2 -6 -8 4 -6 13 -9 21 -6 8 3 11 0 7 -10 -3
-9 1 -14 14 -14 11 0 28 -8 39 -18 77 -71 261 -121 398 -108 39 4 87 9 106 12
40 5 162 43 142 43 -7 1 -10 6 -6 12 3 6 17 8 31 4 18 -4 23 -2 17 6 -5 9 -2
10 10 6 13 -5 19 -1 23 12 5 20 33 38 33 21 0 -15 15 -12 38 8 12 10 41 31 66
47 26 16 46 33 46 37 0 4 6 8 13 8 6 0 27 14 45 31 26 25 31 34 20 41 -9 7 -7
8 7 4 15 -4 36 9 83 56 53 52 60 63 49 77 -11 14 -10 14 5 2 16 -12 20 -10 36
9 l19 23 22 -22 c12 -12 26 -19 31 -16 6 3 7 -1 4 -9 -3 -9 -1 -16 5 -16 6 0
11 -7 11 -15 0 -8 9 -15 21 -15 11 0 18 -4 15 -8 -4 -8 16 -31 72 -81 12 -12
29 -21 37 -21 8 0 15 -7 15 -15 0 -17 8 -19 64 -15 26 1 36 -2 32 -9 -4 -6
-18 -8 -32 -5 -18 5 -23 3 -19 -8 8 -20 59 -48 89 -48 14 0 26 -4 26 -10 0 -5
8 -7 18 -4 15 5 15 4 -1 -9 -18 -15 -18 -16 2 -26 26 -14 44 -14 35 1 -4 7 -3
8 5 4 6 -4 9 -11 6 -16 -7 -11 24 -22 37 -13 7 4 8 1 3 -7 -6 -10 0 -12 23 -8
20 3 28 0 26 -7 -9 -21 187 -70 206 -51 7 7 10 6 10 -2 0 -8 22 -12 68 -12 50
0 63 3 52 11 -11 8 -5 9 23 4 35 -6 184 27 197 44 3 3 21 14 41 23 32 14 36
20 32 45 -4 24 -2 25 7 10 12 -18 40 -24 40 -7 0 5 -8 14 -17 19 -16 9 -16 10
4 11 12 0 23 -5 25 -12 4 -11 11 -5 55 44 6 7 30 31 52 52 29 28 41 48 41 68
0 15 5 28 11 28 5 0 7 -6 3 -12 -4 -7 1 -6 10 3 9 8 18 25 21 37 2 12 11 32
19 44 9 12 16 33 16 45 0 13 5 23 11 23 6 0 9 9 6 20 -3 11 -2 20 2 20 11 0
32 149 27 190 -14 129 -45 239 -80 295 -7 11 -16 33 -20 48 -4 15 -25 67 -48
115 -23 48 -42 92 -43 98 0 6 -7 21 -16 35 -9 13 -22 39 -30 57 -8 17 -18 32
-22 32 -5 0 -5 5 -2 11 4 6 0 16 -9 22 -9 7 -18 23 -20 37 -3 14 -5 27 -6 30
0 3 -7 -6 -15 -20 -17 -29 -20 -9 -4 22 9 18 8 24 -7 35 -10 7 -13 13 -6 13 6
0 9 7 6 15 -4 8 -11 12 -17 8 -5 -3 -7 -2 -4 4 3 5 -6 34 -21 64 -14 30 -27
59 -28 64 -6 28 -64 128 -64 110 -1 -19 -1 -19 -11 -1 -9 14 -8 20 1 26 9 6 8
14 -5 34 -9 14 -22 23 -27 20 -6 -4 -8 1 -4 14 5 14 0 26 -19 40 -27 21 -34
37 -12 29 21 -8 -42 106 -66 121 -15 9 -16 12 -4 8 10 -3 17 -3 15 2 -50 115
-197 393 -210 397 -10 4 -18 11 -18 16 0 6 5 7 10 4 6 -3 10 -2 10 4 0 5 -4
13 -10 16 -5 3 -10 15 -10 26 0 10 -4 19 -10 19 -5 0 -10 6 -10 13 0 8 -9 22
-20 32 -11 10 -18 20 -16 24 9 13 -24 72 -36 65 -8 -5 -9 -2 -5 10 4 11 -1 25
-16 40 -12 12 -23 35 -24 50 0 16 -5 31 -11 35 -5 3 -19 25 -31 48 -11 23 -30
47 -41 53 -11 6 -20 19 -20 29 0 10 -8 27 -17 39 -10 11 -25 30 -33 42 -24 36
-63 70 -87 76 -13 4 -23 11 -23 18 -1 16 -80 51 -110 48 -22 -1 -23 -1 -5 7
19 8 19 8 -2 15 -13 4 -27 5 -32 2 -5 -4 -11 -2 -13 3 -5 14 -175 21 -238 10z
m-5 -29 c-3 -5 -10 -10 -16 -10 -5 0 -9 5 -9 10 0 6 7 10 16 10 8 0 12 -4 9
-10z m-105 -50 c0 -5 -5 -10 -11 -10 -5 0 -7 5 -4 10 3 6 8 10 11 10 2 0 4 -4
4 -10z m-125 -90 c3 -5 1 -10 -4 -10 -6 0 -11 5 -11 10 0 6 2 10 4 10 3 0 8
-4 11 -10z m705 0 c0 -5 -5 -10 -11 -10 -5 0 -7 5 -4 10 3 6 8 10 11 10 2 0 4
-4 4 -10z m-496 -22 c-5 -8 -2 -9 12 -4 36 14 160 19 212 7 40 -8 57 -8 71 1
26 16 53 -6 47 -38 -3 -16 0 -24 9 -24 8 0 19 -9 25 -21 7 -11 14 -18 17 -15
4 3 11 -4 18 -17 7 -14 18 -21 32 -19 12 2 24 -1 27 -7 3 -5 -3 -7 -14 -4 -23
6 -25 0 -9 -28 5 -11 15 -16 21 -13 7 4 8 2 4 -5 -4 -6 4 -32 19 -56 25 -44
43 -60 31 -29 -3 9 -2 12 5 8 6 -3 8 -17 5 -30 -5 -17 -2 -24 8 -24 9 0 12 -7
9 -19 -3 -11 4 -28 16 -40 13 -13 18 -27 14 -38 -5 -15 -3 -15 11 2 16 20 16
19 10 -6 -3 -15 -1 -30 5 -33 6 -4 11 -16 11 -26 0 -11 9 -28 21 -39 12 -11
18 -24 14 -30 -3 -6 -1 -11 4 -11 6 0 11 5 11 10 0 6 5 10 10 10 7 0 7 -7 0
-21 -9 -15 -8 -24 1 -35 6 -8 8 -14 5 -14 -4 0 -4 -5 0 -11 4 -8 9 -7 16 2 7
10 8 8 5 -9 -3 -12 1 -29 10 -37 9 -9 10 -15 3 -15 -6 0 -8 -5 -5 -10 4 -6 11
-8 16 -5 5 4 9 -1 9 -10 0 -8 4 -23 10 -33 5 -9 16 -34 25 -54 18 -40 44 -42
46 -4 0 11 3 15 6 8 3 -7 0 -26 -7 -43 -10 -23 -10 -32 1 -45 7 -9 14 -25 14
-36 1 -11 9 -25 19 -30 9 -5 14 -13 11 -19 -4 -5 -2 -9 4 -9 5 0 12 6 14 13 4
9 6 9 6 0 1 -6 -3 -14 -8 -18 -13 -7 21 -85 37 -85 6 0 12 -11 12 -24 0 -30
24 -78 35 -68 4 4 4 -3 1 -15 -6 -18 0 -26 28 -45 36 -23 49 -45 21 -34 -18 6
-19 1 -4 -25 5 -11 14 -17 20 -14 5 4 9 1 9 -4 0 -6 -4 -11 -10 -11 -11 0 48
-121 64 -132 6 -4 7 -10 4 -14 -4 -4 1 -19 12 -34 11 -16 20 -32 20 -36 0 -5
18 -47 41 -94 90 -188 107 -226 114 -247 3 -13 11 -23 16 -23 5 0 9 -7 9 -15
0 -8 9 -32 20 -52 11 -21 20 -43 20 -49 0 -6 6 -17 14 -23 8 -7 17 -27 20 -45
4 -19 13 -39 21 -46 8 -7 12 -16 9 -21 -3 -5 1 -6 9 -4 10 4 12 -3 9 -31 -3
-28 -1 -35 8 -29 8 5 11 4 7 -1 -3 -6 -1 -30 4 -55 6 -24 12 -68 13 -98 2 -32
9 -57 17 -62 11 -7 11 -9 1 -9 -7 0 -10 -4 -7 -10 3 -5 2 -10 -4 -10 -5 0 -10
-8 -9 -17 0 -10 -5 -33 -10 -50 -6 -18 -8 -33 -6 -33 3 0 -4 -13 -16 -30 -12
-16 -19 -34 -15 -39 3 -5 -6 -22 -20 -37 -19 -21 -22 -29 -13 -36 9 -5 9 -8 1
-8 -6 0 -27 -15 -46 -32 -53 -49 -119 -96 -160 -113 -41 -17 -50 -36 -14 -29
20 4 21 4 2 -5 -28 -13 -48 -13 -39 0 5 9 -1 10 -22 5 -75 -17 -200 -18 -264
-1 -36 9 -75 16 -87 16 -13 -1 -23 3 -23 7 0 15 -66 41 -81 31 -14 -9 -76 -13
-67 -4 2 3 17 6 31 7 35 3 34 20 0 36 -48 21 -76 40 -85 56 -5 9 -15 16 -22
16 -7 0 -23 13 -35 29 -14 18 -29 27 -37 24 -9 -3 -14 0 -12 8 2 7 -7 18 -19
24 -13 5 -23 15 -23 22 0 7 -7 13 -16 13 -8 0 -13 4 -10 8 6 10 -30 43 -38 35
-3 -4 -6 1 -6 10 0 10 -7 17 -16 17 -8 0 -13 4 -9 9 3 5 1 12 -5 16 -12 8 -13
52 -1 59 5 3 7 16 5 29 -4 19 -3 19 4 3 7 -17 12 -14 40 24 17 24 29 48 25 54
-3 6 -3 8 2 4 10 -10 37 11 30 23 -3 4 -13 5 -22 2 -11 -4 -14 -3 -9 6 5 7 15
10 23 7 9 -4 22 2 30 11 23 30 78 128 75 136 -1 4 3 7 8 7 11 0 35 49 31 64
-1 5 8 19 20 32 11 12 18 27 14 33 -3 6 1 11 9 11 9 0 16 8 16 18 0 14 -2 15
-10 2 -5 -8 -10 -10 -10 -5 0 13 16 37 24 36 3 -1 6 2 7 7 0 4 7 14 14 23 8 8
26 64 40 125 15 60 31 123 36 140 12 41 12 151 -1 159 -5 3 -10 18 -10 32 0
41 -31 135 -57 170 -13 17 -23 36 -23 42 0 14 -13 14 -28 -1 -9 -9 -12 -9 -12
0 0 7 5 12 10 12 19 0 10 19 -22 53 -62 63 -104 88 -132 81 -19 -4 -26 -2 -26
9 0 24 -46 47 -123 62 -90 16 -187 19 -187 4 0 -6 -8 -8 -19 -4 -23 7 -111
-14 -111 -26 0 -5 -9 -9 -21 -9 -14 0 -19 -5 -16 -14 4 -11 1 -13 -10 -9 -11
5 -14 3 -8 -6 6 -11 3 -11 -16 0 -22 11 -23 11 -10 -4 15 -19 2 -24 -16 -6 -7
7 -16 3 -31 -15 -11 -14 -23 -26 -28 -26 -15 0 -54 -44 -54 -62 0 -10 -5 -18
-11 -18 -5 0 -7 5 -4 10 3 6 1 10 -4 10 -14 0 -14 -17 -1 -25 6 -4 7 -11 4
-17 -4 -6 -10 -5 -15 3 -6 10 -9 8 -9 -9 0 -13 -4 -21 -9 -17 -14 8 -32 -30
-25 -50 4 -10 2 -15 -6 -13 -7 2 -21 -23 -33 -62 -35 -108 -28 -288 16 -410 9
-25 17 -53 17 -62 0 -10 9 -27 21 -39 11 -11 18 -27 15 -34 -3 -8 -1 -17 4
-20 6 -4 10 -15 10 -25 0 -14 5 -18 18 -13 13 5 15 3 5 -7 -10 -10 -8 -19 6
-39 9 -14 24 -42 31 -61 8 -19 27 -48 42 -65 15 -16 28 -36 28 -42 0 -7 7 -13
16 -13 8 0 12 -4 9 -10 -3 -5 1 -20 10 -34 11 -17 22 -23 38 -19 20 4 20 3 4
-7 -14 -9 -15 -15 -6 -32 9 -17 13 -18 20 -7 6 10 9 8 9 -9 0 -18 4 -22 19
-17 11 3 22 1 26 -4 3 -7 0 -8 -9 -5 -11 4 -16 0 -16 -10 0 -9 5 -16 10 -16 6
0 9 -5 8 -12 -2 -7 7 -17 20 -23 15 -7 22 -18 22 -37 0 -16 -4 -28 -9 -28 -5
0 -13 -9 -16 -21 -4 -11 -9 -18 -12 -15 -11 11 -52 -51 -47 -71 4 -13 0 -22
-10 -26 -19 -7 -21 4 -4 21 9 9 9 12 0 12 -14 0 -62 -47 -62 -61 0 -6 -4 -8
-9 -5 -10 6 -47 -44 -43 -57 1 -5 -5 -6 -15 -3 -10 3 -27 -2 -38 -10 -17 -13
-18 -16 -5 -25 13 -9 12 -10 -2 -5 -22 7 -50 -3 -42 -15 3 -5 -6 -9 -20 -9
-30 0 -44 -18 -25 -32 10 -7 6 -8 -14 -5 -15 2 -30 0 -33 -4 -3 -5 -14 -9 -25
-9 -11 0 -18 -4 -15 -9 3 -5 -9 -11 -27 -14 -17 -3 -59 -13 -92 -21 -78 -21
-308 -19 -300 3 3 8 0 11 -9 8 -8 -3 -16 -3 -18 1 -5 13 -96 62 -113 62 -9 0
-13 5 -10 10 3 6 -1 10 -10 10 -8 0 -18 6 -21 14 -3 8 -13 12 -26 8 -18 -4
-19 -3 -9 16 9 18 8 23 -9 32 -11 6 -20 17 -20 24 0 7 -9 21 -20 31 -11 10
-20 24 -20 32 0 7 -6 24 -14 36 -18 29 -36 137 -36 218 0 80 15 136 74 271 25
59 46 111 46 116 0 4 14 30 30 56 29 45 30 50 15 72 -18 27 -19 34 -5 34 6 0
10 -7 10 -15 0 -8 5 -15 10 -15 16 0 26 33 12 38 -19 6 -14 22 7 22 13 0 29
24 60 93 23 50 41 98 41 105 0 6 5 12 10 12 14 0 13 33 -2 48 -9 9 -9 12 0 12
7 0 12 -5 12 -12 0 -6 3 -8 7 -4 4 4 7 19 8 34 0 17 5 27 15 27 8 0 15 7 15
15 0 8 6 21 12 28 9 9 10 19 3 32 -15 28 -11 38 5 16 8 -11 15 -17 15 -13 0
17 2 23 15 37 22 25 47 94 35 98 -5 2 -10 8 -10 13 0 4 6 6 13 4 15 -6 57 54
57 82 0 11 6 26 14 33 8 6 12 18 10 25 -3 7 4 18 15 25 12 6 21 17 21 26 0 8
29 72 65 141 36 70 63 133 61 140 -3 7 -1 13 4 13 9 0 41 54 39 66 0 4 4 10
10 13 6 4 12 16 14 27 1 11 13 34 25 51 12 17 22 36 22 42 0 5 11 27 25 47 14
20 25 42 25 49 0 7 7 18 15 25 8 7 12 17 9 22 -3 5 2 18 11 28 9 10 17 24 19
32 1 7 5 18 9 25 4 7 5 23 1 37 -5 22 -3 24 18 19 12 -3 20 -3 16 1 -3 4 3 17
14 28 11 11 17 26 14 34 -3 8 1 14 9 14 7 0 17 9 20 20 3 11 12 26 18 33 32
35 51 60 40 53 -7 -4 -13 -2 -13 3 0 6 3 11 8 12 31 3 58 11 67 21 7 8 6 9 -2
4 -9 -5 -13 0 -13 13 0 12 5 21 10 21 6 0 10 -4 10 -10 0 -16 19 -11 37 10 19
22 28 27 17 8z m-174 -132 c0 -3 -4 -8 -10 -11 -5 -3 -10 -1 -10 4 0 6 5 11
10 11 6 0 10 -2 10 -4z m-170 -32 c0 -8 -4 -12 -10 -9 -5 3 -10 10 -10 16 0 5
5 9 10 9 6 0 10 -7 10 -16z m989 -11 c9 -18 9 -23 -1 -23 -7 0 -14 12 -14 26
-2 28 -1 28 15 -3z m-909 -59 c0 -8 -5 -12 -10 -9 -6 4 -8 11 -5 16 9 14 15
11 15 -7z m976 -101 c-3 -4 -6 -1 -6 6 0 7 -4 9 -10 6 -6 -3 -10 4 -10 17 l0
22 16 -22 c9 -13 13 -26 10 -29z m-1138 17 c-7 -11 -16 -20 -20 -20 -5 0 -3 9
4 20 7 11 16 20 20 20 5 0 3 -9 -4 -20z m92 -90 c0 -5 -5 -10 -11 -10 -5 0 -7
5 -4 10 3 6 8 10 11 10 2 0 4 -4 4 -10z m1110 -29 c0 -6 -4 -13 -10 -16 -5 -3
-10 1 -10 9 0 9 5 16 10 16 6 0 10 -4 10 -9z m66 -148 c-10 -10 -19 5 -10 18
6 11 8 11 12 0 2 -7 1 -15 -2 -18z m-1411 -3 c3 -5 1 -10 -4 -10 -6 0 -11 5
-11 10 0 6 2 10 4 10 3 0 8 -4 11 -10z m107 -42 c-7 -7 -12 -8 -12 -2 0 6 3
14 7 17 3 4 9 5 12 2 2 -3 -1 -11 -7 -17z m-178 -85 c-10 -40 -14 -41 -14 -5
0 18 5 32 10 32 6 0 8 -11 4 -27z m120 -48 c-6 -16 -24 -21 -24 -7 0 11 11 22
21 22 5 0 6 -7 3 -15z m-23 -58 c-10 -9 -11 -8 -5 6 3 10 9 15 12 12 3 -3 0
-11 -7 -18z m-161 -59 c0 -5 -4 -8 -10 -8 -5 0 -10 10 -10 23 0 18 2 19 10 7
5 -8 10 -18 10 -22z m113 -29 c-4 -13 -9 -17 -15 -11 -11 11 -3 32 12 32 4 0
6 -9 3 -21z m-16 -49 c-1 -12 -5 -16 -10 -11 -5 5 -6 14 -3 20 11 16 15 13 13
-9z m1562 -111 c-19 -11 -24 -3 -8 14 8 9 16 11 18 5 2 -6 -3 -14 -10 -19z m1
-28 c0 -6 -4 -13 -10 -16 -5 -3 -10 1 -10 9 0 9 5 16 10 16 6 0 10 -4 10 -9z
m164 -50 c-9 -10 -26 18 -18 30 5 9 9 8 14 -7 4 -10 6 -21 4 -23z m-1954 15
c0 -3 -4 -8 -10 -11 -5 -3 -10 -1 -10 4 0 6 5 11 10 11 6 0 10 -2 10 -4z
m1330 -20 c0 -3 -4 -8 -10 -11 -5 -3 -10 -1 -10 4 0 6 5 11 10 11 6 0 10 -2
10 -4z m-485 -26 c3 -5 1 -10 -4 -10 -6 0 -11 5 -11 10 0 6 2 10 4 10 3 0 8
-4 11 -10z m262 -6 c-3 -3 -12 -4 -19 -1 -8 3 -5 6 6 6 11 1 17 -2 13 -5z m-7
-17 c14 -3 31 -6 38 -6 6 -1 12 -8 12 -16 0 -8 11 -17 25 -21 13 -3 37 -22 54
-41 25 -29 33 -33 50 -24 13 7 22 8 26 1 3 -5 -3 -10 -14 -10 -12 0 -21 -2
-21 -4 0 -14 24 -66 30 -66 4 0 13 -35 19 -77 18 -126 -9 -275 -73 -403 -14
-27 -23 -50 -20 -50 3 0 -2 -10 -10 -21 -8 -12 -12 -28 -9 -36 3 -7 0 -13 -6
-11 -6 2 -19 -10 -28 -27 -10 -16 -28 -48 -41 -69 -24 -38 -24 -39 -3 -33 12
3 21 1 21 -4 0 -5 -11 -9 -25 -9 -27 0 -48 -30 -39 -54 3 -9 1 -16 -6 -16 -6
0 -8 5 -5 11 4 6 -2 5 -13 -2 -12 -7 -23 -23 -26 -34 -3 -12 -22 -39 -43 -60
l-37 -38 -14 32 c-8 21 -18 31 -27 27 -9 -3 -12 0 -8 9 3 8 -8 30 -24 48 -16
18 -35 47 -42 65 -7 18 -18 32 -23 32 -5 0 -6 -4 -3 -10 3 -5 1 -10 -6 -10 -6
0 -9 8 -6 20 3 10 -1 24 -9 31 -8 6 -12 15 -9 19 3 4 -7 25 -21 46 -14 21 -37
63 -50 93 -14 30 -31 62 -38 71 -8 8 -17 34 -21 58 -4 23 -10 42 -15 42 -4 0
-11 21 -14 48 -4 26 -10 56 -13 67 -3 11 -6 44 -7 73 0 28 -4 52 -8 52 -4 0
-8 10 -8 23 0 17 2 19 9 8 7 -10 12 -2 21 30 7 24 16 52 21 61 5 10 9 27 9 38
0 11 7 23 15 26 8 4 13 10 10 14 -3 4 5 10 18 14 18 5 19 8 7 16 -13 8 -13 11
-1 22 10 10 12 10 7 1 -5 -8 -1 -13 9 -13 11 0 15 5 12 15 -8 18 5 26 23 15
10 -6 21 -3 33 8 32 28 97 40 197 37 52 -2 106 -6 120 -8z m135 -45 c-3 -3
-11 0 -18 7 -9 10 -8 11 6 5 10 -3 15 -9 12 -12z m-705 -37 c0 -8 -4 -15 -10
-15 -5 0 -7 7 -4 15 4 8 8 15 10 15 2 0 4 -7 4 -15z m1510 -9 c0 -3 -4 -8 -10
-11 -5 -3 -10 -1 -10 4 0 6 5 11 10 11 6 0 10 -2 10 -4z m-1983 -12 c-3 -3
-12 -4 -19 -1 -8 3 -5 6 6 6 11 1 17 -2 13 -5z m580 -56 c-3 -8 -6 -5 -6 6 -1
11 2 17 5 13 3 -3 4 -12 1 -19z m678 2 c3 -5 -1 -10 -10 -10 -9 0 -13 5 -10
10 3 6 8 10 10 10 2 0 7 -4 10 -10z m149 -6 c3 -8 2 -12 -4 -9 -6 3 -10 10
-10 16 0 14 7 11 14 -7z m-1604 -53 c-6 -12 -16 -21 -22 -21 -6 0 -5 6 3 16 8
9 14 22 15 28 3 32 7 39 11 19 2 -12 -1 -31 -7 -42z m612 4 c3 -13 1 -22 -3
-19 -9 5 -13 44 -5 44 2 0 6 -11 8 -25z m1633 -15 c3 -5 -1 -10 -10 -10 -9 0
-13 5 -10 10 3 6 8 10 10 10 2 0 7 -4 10 -10z m-2312 -128 c-3 -12 -12 -22
-19 -22 -12 0 -11 5 2 25 19 30 26 28 17 -3z m677 -107 c0 -8 -2 -15 -4 -15
-2 0 -6 7 -10 15 -3 8 -1 15 4 15 6 0 10 -7 10 -15z m1006 -10 c0 -14 -4 -25
-8 -25 -10 0 -10 13 -2 34 9 23 12 20 10 -9z m-1596 -5 c0 -5 -4 -10 -10 -10
-5 0 -10 5 -10 10 0 6 5 10 10 10 6 0 10 -4 10 -10z m-166 -26 c3 -8 2 -12 -4
-9 -6 3 -10 10 -10 16 0 14 7 11 14 -7z m2526 2 c0 -3 -4 -8 -10 -11 -5 -3
-10 -1 -10 4 0 6 5 11 10 11 6 0 10 -2 10 -4z m-1760 -21 c0 -8 -7 -15 -15
-15 -16 0 -20 12 -8 23 11 12 23 8 23 -8z m997 -17 c-3 -7 -5 -2 -5 12 0 14 2
19 5 13 2 -7 2 -19 0 -25z m-1777 -38 c0 -5 -5 -10 -11 -10 -5 0 -7 5 -4 10 3
6 8 10 11 10 2 0 4 -4 4 -10z m2435 -19 c3 -5 2 -12 -3 -15 -5 -3 -9 1 -9 9 0
17 3 19 12 6z m152 -53 c-3 -7 -5 -2 -5 12 0 14 2 19 5 13 2 -7 2 -19 0 -25z
m-2630 0 c-3 -8 -6 -5 -6 6 -1 11 2 17 5 13 3 -3 4 -12 1 -19z m-17 -49 c0
-16 -4 -28 -9 -25 -8 5 -3 56 5 56 2 0 4 -14 4 -31z m2683 -21 c-12 -21 -33
-6 -33 23 l0 31 19 -23 c11 -13 17 -27 14 -31z m-1616 -20 c2 -12 8 -27 13
-33 5 -7 7 -15 3 -18 -8 -9 -33 40 -33 66 0 25 13 14 17 -15z m-157 12 c0 -5
-4 -10 -10 -10 -5 0 -10 5 -10 10 0 6 5 10 10 10 6 0 10 -4 10 -10z m1650 0
c0 -5 -4 -10 -10 -10 -5 0 -10 5 -10 10 0 6 5 10 10 10 6 0 10 -4 10 -10z
m-950 -30 c0 -5 -4 -10 -10 -10 -5 0 -10 5 -10 10 0 6 5 10 10 10 6 0 10 -4
10 -10z m964 -36 c4 -10 1 -14 -6 -12 -15 5 -23 28 -10 28 5 0 13 -7 16 -16z
m-854 -8 c0 -3 -4 -8 -10 -11 -5 -3 -10 -1 -10 4 0 6 5 11 10 11 6 0 10 -2 10
-4z m-1790 -41 c0 -8 -4 -15 -10 -15 -5 0 -7 7 -4 15 4 8 8 15 10 15 2 0 4 -7
4 -15z m1210 -9 c0 -3 -4 -8 -10 -11 -5 -3 -10 -1 -10 4 0 6 5 11 10 11 6 0
10 -2 10 -4z m396 -33 c-11 -11 -17 4 -9 23 7 18 8 18 11 1 2 -10 1 -21 -2
-24z m-1480 15 c-2 -18 -16 -38 -25 -38 -5 0 -6 11 -3 25 4 25 32 37 28 13z
m924 8 c0 -11 -19 -15 -25 -6 -3 5 1 10 9 10 9 0 16 -2 16 -4z m159 -46 c11
-24 11 -24 -3 -6 -9 11 -16 24 -16 30 0 12 5 7 19 -24z m392 -13 c-10 -9 -11
-8 -5 6 3 10 9 15 12 12 3 -3 0 -11 -7 -18z m-1654 -39 c-3 -7 -5 -2 -5 12 0
14 2 19 5 13 2 -7 2 -19 0 -25z m150 0 c-3 -7 -5 -2 -5 12 0 14 2 19 5 13 2
-7 2 -19 0 -25z m1603 -5 c-11 -17 -11 -17 -6 0 3 10 6 24 7 30 0 9 2 9 5 0 3
-7 0 -20 -6 -30z m1167 -23 c0 -16 -4 -30 -9 -30 -4 0 -8 14 -8 30 0 17 4 30
8 30 5 0 9 -13 9 -30z m-1592 0 c3 -5 1 -10 -4 -10 -6 0 -11 5 -11 10 0 6 2
10 4 10 3 0 8 -4 11 -10z m415 -10 c0 -5 -5 -10 -11 -10 -5 0 -7 5 -4 10 3 6
8 10 11 10 2 0 4 -4 4 -10z m-329 -117 c-11 -5 -11 -7 0 -15 11 -7 9 -8 -5 -6
-28 4 -30 24 -4 25 13 0 17 -1 9 -4z m1516 -15 c-3 -8 -6 -5 -6 6 -1 11 2 17
5 13 3 -3 4 -12 1 -19z m-2845 -50 c2 -20 0 -34 -4 -32 -4 3 -8 24 -7 47 1 47
6 41 11 -15z m28 11 c0 -17 -4 -28 -10 -24 -5 3 -10 17 -10 31 0 13 5 24 10
24 6 0 10 -14 10 -31z m1198 -24 c-3 -3 -9 2 -12 12 -6 14 -5 15 5 6 7 -7 10
-15 7 -18z m-1205 -55 c3 -11 1 -23 -4 -26 -5 -3 -9 6 -9 20 0 31 6 34 13 6z
m2827 -5 c0 -8 -4 -15 -10 -15 -5 0 -10 7 -10 15 0 8 5 15 10 15 6 0 10 -7 10
-15z m-1610 -52 c0 -14 -19 -38 -25 -32 -8 8 5 39 16 39 5 0 9 -3 9 -7z
m-1323 -55 c-3 -8 -6 -5 -6 6 -1 11 2 17 5 13 3 -3 4 -12 1 -19z m2753 -53 c0
-8 -2 -15 -4 -15 -2 0 -6 7 -10 15 -3 8 -1 15 4 15 6 0 10 -7 10 -15z m-1580
-61 c0 -2 -7 -4 -15 -4 -8 0 -15 4 -15 10 0 5 7 7 15 4 8 -4 15 -8 15 -10z
m-1107 -26 c8 -30 5 -30 -16 -2 -14 19 -15 24 -4 24 8 0 17 -10 20 -22z m1527
12 c0 -5 -4 -10 -10 -10 -5 0 -10 5 -10 10 0 6 5 10 10 10 6 0 10 -4 10 -10z
m1270 0 c0 -5 -5 -10 -11 -10 -5 0 -7 5 -4 10 3 6 8 10 11 10 2 0 4 -4 4 -10z
m-1200 -70 c0 -5 -2 -10 -4 -10 -3 0 -8 5 -11 10 -3 6 -1 10 4 10 6 0 11 -4
11 -10z m-1480 -64 c0 -2 -7 -7 -16 -10 -8 -3 -12 -2 -9 4 6 10 25 14 25 6z
m965 -6 c-27 -12 -43 -12 -25 0 8 5 22 9 30 9 10 0 8 -3 -5 -9z m950 -40 c-3
-5 -10 -10 -16 -10 -5 0 -9 5 -9 10 0 6 7 10 16 10 8 0 12 -4 9 -10z m-1658
-6 c-3 -3 -12 -4 -19 -1 -8 3 -5 6 6 6 11 1 17 -2 13 -5z m426 -11 c-7 -2 -19
-2 -25 0 -7 3 -2 5 12 5 14 0 19 -2 13 -5z m1190 0 c-7 -2 -19 -2 -25 0 -7 3
-2 5 12 5 14 0 19 -2 13 -5z m-1693 -83 c0 -5 -4 -10 -10 -10 -5 0 -10 5 -10
10 0 6 5 10 10 10 6 0 10 -4 10 -10z m520 -10 c0 -5 -11 -10 -25 -10 -14 0
-25 5 -25 10 0 6 11 10 25 10 14 0 25 -4 25 -10z m-297 -57 c-7 -2 -19 -2 -25
0 -7 3 -2 5 12 5 14 0 19 -2 13 -5z"/>
<path d="M3561 4511 c-11 -7 -10 -11 7 -20 14 -7 23 -8 27 -1 3 5 1 10 -5 10
-6 0 -8 5 -5 10 8 12 -5 13 -24 1z"/>
</g>
</svg>
